<svg xmlns="http://www.w3.org/2000/svg" version="1.1" xmlns:xlink="http://www.w3.org/1999/xlink" width="1440" height="560" preserveAspectRatio="none" viewBox="0 0 1440 560">
  <!-- <style>
    /* Stroke animation for the paths */
    path {
      stroke-dasharray: 2000;
      stroke-dashoffset: 2000;
      animation: draw 3s ease-in-out forwards, colorChange 6s infinite alternate;
      stroke: white;
      stroke-width: 2px;
    }

    /* Keyframes for drawing animation */
    @keyframes draw {
      to {
        stroke-dashoffset: 0;
      }
    }

    /* Keyframes for color change animation */
    @keyframes colorChange {
      0% {
        fill: #08383a;
      }
      100% {
        fill: #0c5458;
      }
    }
  </style> -->
  
  <g mask="url(#SvgjsMask1004)" fill="none">
    <rect width="1440" height="560" fill="rgba(10, 70, 73, 1)"></rect>
    <path d="M0,435.849C91.424,444.381,182.605,449.2,269.367,419.143C373.069,383.218,505.177,350.976,542.699,247.842C580.706,143.374,479.344,41.773,445.143,-64.002C417.634,-149.08,404.324,-234.693,361.326,-313.091C308.629,-409.172,267.031,-524.55,167.456,-570.302C65.286,-617.247,-54.902,-586.07,-162.62,-553.832C-269.921,-521.719,-369.135,-467.909,-446.209,-386.642C-525.633,-302.897,-592.185,-201.701,-605.332,-87.034C-618.319,26.236,-588.8,147.319,-517.642,236.399C-451.845,318.769,-337.258,333.808,-238.885,371.712C-160.359,401.968,-83.789,428.03,0,435.849" />
    <path d="M1440 963.783C1525.171 984.211 1623.247 1007.135 1697.4189999999999 960.552 1771.628 913.947 1783.972 812.943 1812.248 730 1837.8690000000001 654.845 1865.096 579.098 1854.28 500.436 1843.426 421.499 1810.297 343.90999999999997 1751.73 289.884 1695.833 238.32 1612.446 241.212 1542.059 212.42000000000002 1461.164 179.329 1389.739 79.03800000000001 1307.307 108.08800000000002 1223.509 137.61900000000003 1242.842 271.599 1184.352 338.48 1125.4180000000001 405.869 1000.9870000000001 408.203 971.0609999999999 492.577 941.5799999999999 575.697 987.097 672.472 1041.184 742.133 1090.816 806.056 1180.601 814.2470000000001 1251.339 853.5609999999999 1316.316 889.673 1367.712 946.4449999999999 1440 963.783" />
  </g>
  
  <defs>
    <mask id="SvgjsMask1004">
      <rect width="1440" height="560" fill="#ffffff"></rect>
    </mask>
  </defs>
</svg>
